<svg width="24" height="24" viewBox="0 0 24 24" fill="none" xmlns="http://www.w3.org/2000/svg">
<g clip-path="url(#clip0_106:2811)">
<path d="M20.4833 3.5302C25.165 8.2156 25.162 15.8091 20.4766 20.4907C15.7912 25.1724 8.1977 25.1694 3.51602 20.484C-1.16305 15.8013 -1.16305 8.21299 3.51602 3.5302C8.17103 -1.15519 15.7429 -1.17978 20.4283 3.47523C20.4467 3.49349 20.465 3.51181 20.4833 3.5302Z" fill="#FF4B4B"/>
<path d="M17.9623 8.12968L14.0783 12.0138L17.9623 15.8978L15.884 17.9761L12 14.0921L8.11595 17.9761L6.0376 15.8978L9.92171 12.0138L6.0376 8.12968L8.11595 6.05139L12 9.93544L15.884 6.05139L17.9623 8.12968Z" fill="white"/>
</g>
<defs>
<clipPath id="clip0_106:2811">
<rect width="24" height="24" fill="white"/>
</clipPath>
</defs>
</svg>
