<svg width="50" height="50" viewBox="0 0 50 50" fill="none" xmlns="http://www.w3.org/2000/svg">
<mask id="mask0_4_24" style="mask-type:alpha" maskUnits="userSpaceOnUse" x="3" y="4" width="44" height="42">
<path d="M5.20831 8.33333C5.20831 7.7808 5.42781 7.25089 5.81851 6.86019C6.20921 6.46949 6.73911 6.25 7.29165 6.25H42.7083C43.2608 6.25 43.7908 6.46949 44.1815 6.86019C44.5722 7.25089 44.7916 7.7808 44.7916 8.33333V33.3333C44.7916 33.8859 44.5722 34.4158 44.1815 34.8065C43.7908 35.1972 43.2608 35.4167 42.7083 35.4167H7.29165C6.73911 35.4167 6.20921 35.1972 5.81851 34.8065C5.42781 34.4158 5.20831 33.8859 5.20831 33.3333V8.33333Z" stroke="white" stroke-width="4" stroke-linecap="round" stroke-linejoin="round"/>
<path d="M5.20831 27.0833C5.20831 26.5308 5.42781 26.0009 5.81851 25.6102C6.20921 25.2195 6.73911 25 7.29165 25H42.7083C43.2608 25 43.7908 25.2195 44.1815 25.6102C44.5722 26.0009 44.7916 26.5308 44.7916 27.0833V33.3333C44.7916 33.8859 44.5722 34.4158 44.1815 34.8065C43.7908 35.1972 43.2608 35.4167 42.7083 35.4167H7.29165C6.73911 35.4167 6.20921 35.1972 5.81851 34.8065C5.42781 34.4158 5.20831 33.8859 5.20831 33.3333V27.0833Z" fill="white" stroke="white" stroke-width="4" stroke-linecap="round" stroke-linejoin="round"/>
<path d="M22.9167 12.5L18.75 17.7083M29.1667 14.5833L26.0417 18.75" stroke="white" stroke-width="4" stroke-linecap="round" stroke-linejoin="round"/>
<path d="M25 32.2917C26.1506 32.2917 27.0833 31.3589 27.0833 30.2083C27.0833 29.0577 26.1506 28.125 25 28.125C23.8494 28.125 22.9166 29.0577 22.9166 30.2083C22.9166 31.3589 23.8494 32.2917 25 32.2917Z" fill="black"/>
<path d="M17.7083 35.4167L14.5833 43.75H35.4166L32.2916 35.4167" stroke="white" stroke-width="4" stroke-linecap="round" stroke-linejoin="round"/>
</mask>
<g mask="url(#mask0_4_24)">
<path d="M0 0H50V50H0V0Z" fill="#F24E1E"/>
</g>
</svg>
