<svg width="50" height="50" viewBox="0 0 50 50" fill="none" xmlns="http://www.w3.org/2000/svg">
<path d="M43.6789 1.5625L31.9828 7.61719L21.143 2.92969L6.32109 3.90625L1.5625 45.5078L16.8867 44.2055L33.8953 48.4375L48.4375 43.1641L43.6789 1.5625ZM42.3844 3.99141L46.7453 42.1156L34.1953 46.6664L34.1258 45.2023L45.1969 41.0227L41.4141 6.18437L32.4727 10.425L32.4117 9.15469L32.7016 9.00547L42.3844 3.99141M33.293 27.6945C33.4664 27.3258 33.6367 26.8078 33.718 26.0812C33.718 26.0812 34.5789 26.1234 35.6383 28.432C35.6383 28.432 36.1008 28.3859 35.8703 26.8789C35.8703 26.8789 37.5242 26.2125 36.632 23.282C36.632 23.282 38.0195 25.193 37.5586 22.7086C37.5586 22.7086 39.0805 20.843 37.2625 19.6023C37.2625 19.6023 37.325 18.2266 38.418 18.4031C38.418 18.4031 39.5102 15.5625 38.9836 18.9352C38.9836 18.9352 39.0148 19.6023 39.7094 20.3547C39.7094 20.3547 40.0086 19.2461 39.4781 18.0508C39.4781 18.0508 40.5711 16.0055 40.4711 14.2328C40.4711 14.2328 36.9305 15.5461 32.9906 15.1539C32.9906 15.1539 33.1828 14.4211 32.6445 14.0094L32.5344 11.693L32.6281 11.6484L40.4281 7.95L43.9344 40.2477L34.068 43.9734L33.293 27.6945M31.857 13.9492C31.45 14.5297 30.3203 16.3148 31.007 17.3836C31.007 17.3836 30.6742 19.6984 30.2102 16.3219C30.2102 16.3219 29.4516 18.3148 28.425 17.8703C28.425 17.8703 28.143 19.8875 27.4969 18.5359C27.4969 18.5359 28.0258 18.7586 28.1422 18.1375C28.1422 18.1375 26.6508 16.5398 25.7594 18.9555C25.7594 18.9555 25.0313 19.2453 25.3133 20.3781C25.3133 20.3781 25.8242 19.4437 26.0898 20.8664C26.0898 20.8664 26.3719 20.6445 26.4898 18.8234C26.4898 18.8234 27.1977 18.4703 26.6508 19.9094C26.6508 19.9094 28.2727 19.9352 25.7594 21.3734C25.7594 21.3734 25.6203 21.35 25.5109 20.7984C25.5109 20.7984 25.1305 22.1266 24.3508 22.5977C24.3508 22.5977 24.5336 23.1281 23.9555 23.3719C23.9555 23.3719 23.6422 24.1938 24.3875 24.1938C24.3875 24.1938 25.032 22.2188 26.257 23.7727C26.257 23.7727 26.4906 23.6844 26.1258 22.907C26.1258 22.907 26.7695 23.1539 27.0187 24.1719C27.0187 24.1719 27.4164 24.1031 27.4797 23.218C27.4797 23.218 27.9789 22.0867 28.7906 23.4187C28.7906 23.4187 27.7133 23.107 27.4336 24.1938C27.4336 24.1938 27.943 23.9711 28.2602 24.2828C28.2602 24.2828 28.2922 24.7898 27.9672 24.9859C28.1078 25.25 28.2602 25.5031 28.4727 25.7172C28.5319 25.7723 28.5702 25.8462 28.5812 25.9264C28.5921 26.0065 28.575 26.088 28.5328 26.157C29.1062 27.1383 30.1656 28.4445 30.907 26.3594C30.907 26.3594 29.9148 26.9227 29.5828 25.3688C29.5828 25.3688 31.5852 25.6234 32.5086 27.632L33.2859 43.9977L17.7141 39.6305L17.9477 37.3203C18.2711 38.1492 18.65 38.4859 18.65 38.4859C18.2102 34.8805 20.8117 32.5703 20.8117 32.5703C21.3172 30.0953 20.032 28.9844 18.8406 28.4844L19.4523 22.4312C19.6977 22.1258 19.8422 21.9219 19.8422 21.9219C19.7539 21.618 19.668 21.3516 19.5859 21.1078L20.1789 15.2344C20.6773 15.8414 20.7344 16.393 20.5945 16.8945C19.9531 19.2016 20.7781 19.9086 20.7781 19.9086C21.2789 17.9602 22.9977 17.6492 22.9977 17.6492C22.8992 15.8273 23.957 13.7562 23.957 13.7562C22.8063 11.7789 21.1602 13.1125 20.2977 14.0563L20.3648 13.393C20.5414 13.1656 20.7258 12.918 20.925 12.6352C20.925 12.6352 20.7602 12.5219 20.4609 12.4391L20.9859 7.23984L31.6766 11.6711L31.7516 11.7023L31.857 13.9492M19.6836 12.3594C19.1508 12.3844 18.4688 12.568 17.6664 13.1227C17.6664 13.1227 17.2852 16.6242 19.4742 14.4297L19.2297 16.8523C18.9438 15.8961 18.2656 15.5633 18.2656 15.5633C17.6016 15.9648 17.668 16.4961 17.668 16.4961C18.2703 16.5867 18.6383 17.3117 18.8547 17.9914C18.7328 18.1781 18.5242 18.3914 18.1641 18.4266C18.1641 18.4266 18.5836 19.057 18.9898 19.2336L18.9453 19.668C18 18.2516 17.5906 21.0977 17.5906 21.0977C15.2539 18.4937 18.2109 17.1906 18.2109 17.1906C16.4008 16.4258 15.5625 14.2336 15.5625 14.2336C15.4742 15.5953 14.9438 15.5352 14.9438 15.5352C10.7953 13.1102 10.0484 17.0156 10.0484 17.0156C10.707 19.0844 9.29531 19.3211 9.29531 19.3211C10.6625 19.557 11.368 17.6641 11.368 17.6641C14.1945 19.0844 12.6937 24.1727 12.6937 24.1727C13.7961 24.8211 14.1055 26.9531 14.1055 26.9531C14.8734 27.1859 15.6602 27.6562 16.2117 28.0289C16.3187 27.9328 16.4289 27.8414 16.5445 27.7562C15.2555 26.8453 15.2531 25.3703 15.2531 25.3703C16.4227 25.3703 17.6664 24.3625 18.5641 23.4359L18.0797 28.2352C17.8617 28.1804 17.6408 28.1378 17.418 28.1078C17.2097 28.2077 17.0141 28.332 16.8352 28.4781L16.9305 28.5523C15.6305 31.05 17.3883 32.0516 17.6797 32.1961L16.9336 39.5789L6.59297 40.3875L10.0422 7.72031L20.2125 7.12188L19.6836 12.3594M17.5945 40.8148L33.3438 45.232L33.4141 46.7078L17.4016 42.7234L17.5945 40.8148ZM31.6297 9.16719L31.6891 10.4094L21.1094 6.02422L21.2453 4.67578L31.3625 9.05156L31.6297 9.16719M7.72578 5.37969L20.4734 4.53984L20.332 5.94141L8.98125 6.60859L5.28047 41.6664L16.8156 40.7625L16.6234 42.6594L3.33203 43.7898L7.72578 5.37969Z" fill="#E37400"/>
<path d="M25.0484 28.607C25.0484 28.607 26.7062 28.9172 26.0429 32.1117C26.0429 32.1117 26.3078 34.6016 27.7617 34.3742C27.7617 34.3742 28.1586 30.7812 30.0125 28.0289C30.0125 28.0289 29.2609 28.7773 28.4086 26.2953C28.2797 26.3891 28.1047 26.4109 27.9586 26.2656C27.5914 25.8992 27.3695 25.4375 27.1304 24.9734C27.0965 24.9067 27.0827 24.8315 27.0906 24.757C25.8843 24.307 23.4414 23.8555 23.0953 27.4078C23.0961 27.4078 23.5578 29.8531 25.0484 28.607M24.289 20.3086C24.4031 21.9086 24.6172 22.3945 24.8976 21.7297C25.1797 21.0703 24.289 20.3086 24.289 20.3086ZM23.7883 21.8187C23.7883 21.8187 24.2547 21.75 24.1211 21.1633C24.1211 21.1633 23.7883 21.1977 23.7883 21.8187ZM23.6086 18.6023C23.6086 18.6023 22.4328 18.6023 22.8484 19.2031C23.2617 19.8023 23.6086 18.6023 23.6086 18.6023ZM29.4844 33.1781C29.4844 33.1781 29.8437 32.4453 29.832 31.3156C29.8328 31.3156 28.689 32.6219 29.4844 33.1781ZM36.8953 28.5859C36.8953 28.5859 36.0672 29.3414 36.2187 30.0297C36.3679 30.7203 37.0945 29.8937 36.8953 28.5859ZM40.207 31.0289C40.5703 30.393 38.2172 29.6055 38.2172 29.6055C38.682 30.2945 39.8773 31.5961 40.207 31.0289ZM37.575 31.1648C38.1273 30.2195 35.9031 30.6719 35.9031 30.6719C35.9031 30.6719 37.3601 31.5383 37.575 31.1648ZM38.4492 31.3617C38.4492 31.3617 38.0039 32.3578 36.3492 32.7773C36.3492 32.7773 36.6984 33.5781 36.3492 35.0883C36.3492 35.0883 38.0195 32.957 38.982 36.0398C38.982 36.0398 39.8078 36.4883 40.3867 33.6969C40.3867 33.6969 39.6922 32.6914 39.4609 31.2617C39.4617 31.2609 39.232 33.093 38.4492 31.3617M38.7758 22.2734C38.8812 22.1852 38.9633 22.1531 38.9633 22.1531C38.1531 20.843 38.4492 22.7312 38.4492 22.7312C38.5015 22.607 38.5633 22.5117 38.6265 22.4312C38.6695 22.9906 38.5351 23.8242 37.6617 24.6164C37.6609 24.6164 39.5343 23.9102 38.7758 22.2734ZM24.4781 12.4648C24.8867 11.507 23.6023 10.4164 23.6023 10.4164C23.7672 12.7187 24.0726 13.4219 24.4781 12.4648ZM22.8812 12.5906C22.8812 12.5906 23.5461 12.4922 23.3578 11.65C23.3578 11.65 22.8812 11.6977 22.8812 12.5906Z" fill="#E37400"/>
</svg>
