<svg width="50" height="44" viewBox="0 0 50 44" fill="none" xmlns="http://www.w3.org/2000/svg">
<path d="M50 4.6875V39.0625C50 41.6514 47.6016 43.75 44.6429 43.75H5.35714C2.39844 43.75 0 41.6514 0 39.0625V4.6875C0 2.09863 2.39844 0 5.35714 0H44.6429C47.6016 0 50 2.09863 50 4.6875ZM33.9286 25.7812C32.3033 25.7812 30.8233 26.3243 29.7117 27.214L22.1271 23.232C22.3862 22.3415 22.3862 21.4084 22.1271 20.5179L29.7117 16.5359C30.8233 17.4257 32.3033 17.9688 33.9286 17.9688C37.3804 17.9688 40.1786 15.5203 40.1786 12.5C40.1786 9.47969 37.3804 7.03125 33.9286 7.03125C30.4768 7.03125 27.6786 9.47969 27.6786 12.5C27.6786 12.9685 27.7461 13.4231 27.8728 13.8571L20.2882 17.8391C19.1767 16.9493 17.6967 16.4062 16.0714 16.4062C12.6196 16.4062 9.82143 18.8547 9.82143 21.875C9.82143 24.8953 12.6196 27.3438 16.0714 27.3438C17.6967 27.3438 19.1767 26.8007 20.2883 25.911L27.8729 29.893C27.7436 30.3365 27.6784 30.7924 27.6787 31.2501C27.6787 34.2704 30.4769 36.7188 33.9287 36.7188C37.3805 36.7188 40.1787 34.2704 40.1787 31.2501C40.1786 28.2297 37.3804 25.7812 33.9286 25.7812Z" fill="#F9AB00"/>
</svg>
