<svg width="50" height="50" viewBox="0 0 50 50" fill="none" xmlns="http://www.w3.org/2000/svg">
<path d="M25 2.77777C20.6739 2.78138 16.525 4.49678 13.4595 7.54929C10.394 10.6018 8.66093 14.7434 8.63892 19.0694C8.63892 25.5555 12.2778 30.9861 14.9445 34.9444L15.4306 35.6667C18.0837 39.512 20.93 43.2204 23.9584 46.7778L25.0139 48.0139L26.0695 46.7778C29.0975 43.2201 31.9437 39.5117 34.5973 35.6667L35.0834 34.9305C37.7361 30.9722 41.375 25.5555 41.375 19.0694C41.353 14.741 39.6181 10.5973 36.5495 7.5444C33.481 4.49149 29.3285 2.77771 25 2.77777V2.77777ZM25 26.3889C23.198 26.3889 21.4365 25.8545 19.9382 24.8534C18.4399 23.8522 17.2721 22.4293 16.5825 20.7644C15.8929 19.0996 15.7124 17.2677 16.064 15.5003C16.4155 13.7329 17.2833 12.1095 18.5575 10.8352C19.8317 9.56103 21.4552 8.69328 23.2225 8.34173C24.9899 7.99017 26.8219 8.1706 28.4867 8.8602C30.1515 9.5498 31.5745 10.7176 32.5756 12.2159C33.5768 13.7142 34.1111 15.4758 34.1111 17.2778C34.1111 19.6942 33.1512 22.0116 31.4426 23.7203C29.7339 25.429 27.4164 26.3889 25 26.3889V26.3889Z" fill="#F24E1E"/>
<path d="M25 22.4583C27.8612 22.4583 30.1806 20.1389 30.1806 17.2778C30.1806 14.4166 27.8612 12.0972 25 12.0972C22.1389 12.0972 19.8195 14.4166 19.8195 17.2778C19.8195 20.1389 22.1389 22.4583 25 22.4583Z" fill="#F24E1E"/>
</svg>
