<svg width="50" height="50" viewBox="0 0 50 50" fill="none" xmlns="http://www.w3.org/2000/svg">
<g clip-path="url(#clip0_4_7)">
<path d="M50.0006 43.6502C50.0056 44.5289 49.8034 45.3987 49.4074 46.2017C49.0113 47.0047 48.4304 47.7226 47.7032 48.308C46.9761 48.8933 46.1192 49.3326 45.1894 49.5968C44.2596 49.861 43.2781 49.9441 42.31 49.8405C38.7857 49.3704 36.2033 46.6062 36.2893 43.3958V6.48679C36.2041 3.27306 38.793 0.507211 42.3217 0.0422465C43.2889 -0.0598231 44.2691 0.0243766 45.1975 0.289276C46.1259 0.554176 46.9814 0.993739 47.7073 1.57889C48.4331 2.16404 49.0129 2.88145 49.4083 3.68366C49.8036 4.48587 50.0055 5.3546 50.0006 6.23239V43.6502V43.6502Z" fill="#F9AB00"/>
<path d="M6.85566 37.534C10.642 37.534 13.7113 40.3009 13.7113 43.7137C13.7113 47.1268 10.642 49.8935 6.85566 49.8935C3.06934 49.8935 0 47.1268 0 43.7139C0 40.3009 3.06934 37.534 6.85566 37.534V37.534ZM24.8943 18.8039C21.0902 18.9919 18.1385 21.8683 18.227 25.3018V41.9012C18.227 46.4062 20.426 49.141 23.6479 49.7239C24.6467 49.9065 25.6782 49.8863 26.6673 49.6648C27.6564 49.4434 28.5785 49.0263 29.3666 48.4438C30.1547 47.8612 30.7891 47.1279 31.2237 46.2969C31.6584 45.4659 31.8824 44.5581 31.8795 43.6394V25.0157C31.8812 24.1924 31.7009 23.377 31.3493 22.6171C30.9977 21.8573 30.4817 21.1681 29.8315 20.5899C29.1813 20.0117 28.4098 19.556 27.5622 19.2494C26.7145 18.9428 25.8076 18.7914 24.8943 18.804V18.8039Z" fill="#E37400"/>
</g>
<defs>
<clipPath id="clip0_4_7">
<rect width="50" height="50" fill="white"/>
</clipPath>
</defs>
</svg>
