<?xml version="1.0" standalone="no"?>
<svg xmlns:xlink="http://www.w3.org/1999/xlink" id="wave" style="transform:rotate(180deg); transition: 0.3s" viewBox="0 0 1440 490" version="1.1" xmlns="http://www.w3.org/2000/svg"><defs><linearGradient id="sw-gradient-0" x1="0" x2="0" y1="1" y2="0"><stop stop-color="rgba(243, 237, 237, 1)" offset="0%"/><stop stop-color="rgba(178, 9, 56, 1)" offset="100%"/></linearGradient></defs><path style="transform:translate(0, 0px); opacity:1" fill="url(#sw-gradient-0)" d="M0,392L30,334.8C60,278,120,163,180,106.2C240,49,300,49,360,98C420,147,480,245,540,285.8C600,327,660,310,720,294C780,278,840,261,900,236.8C960,212,1020,180,1080,155.2C1140,131,1200,114,1260,89.8C1320,65,1380,33,1440,89.8C1500,147,1560,294,1620,367.5C1680,441,1740,441,1800,383.8C1860,327,1920,212,1980,171.5C2040,131,2100,163,2160,212.3C2220,261,2280,327,2340,318.5C2400,310,2460,229,2520,196C2580,163,2640,180,2700,204.2C2760,229,2820,261,2880,228.7C2940,196,3000,98,3060,106.2C3120,114,3180,229,3240,285.8C3300,343,3360,343,3420,285.8C3480,229,3540,114,3600,130.7C3660,147,3720,294,3780,310.3C3840,327,3900,212,3960,187.8C4020,163,4080,229,4140,253.2C4200,278,4260,261,4290,253.2L4320,245L4320,490L4290,490C4260,490,4200,490,4140,490C4080,490,4020,490,3960,490C3900,490,3840,490,3780,490C3720,490,3660,490,3600,490C3540,490,3480,490,3420,490C3360,490,3300,490,3240,490C3180,490,3120,490,3060,490C3000,490,2940,490,2880,490C2820,490,2760,490,2700,490C2640,490,2580,490,2520,490C2460,490,2400,490,2340,490C2280,490,2220,490,2160,490C2100,490,2040,490,1980,490C1920,490,1860,490,1800,490C1740,490,1680,490,1620,490C1560,490,1500,490,1440,490C1380,490,1320,490,1260,490C1200,490,1140,490,1080,490C1020,490,960,490,900,490C840,490,780,490,720,490C660,490,600,490,540,490C480,490,420,490,360,490C300,490,240,490,180,490C120,490,60,490,30,490L0,490Z"/></svg>