<svg width="14" height="16" viewBox="0 0 14 16" fill="none" xmlns="http://www.w3.org/2000/svg">
<path d="M10.2107 0H1.9096C1.10744 0 0.455078 0.651648 0.455078 1.45456V14.5455C0.455078 15.3484 1.10744 16 1.90964 16H12.0914C12.8936 16 13.546 15.3484 13.546 14.5455V3.33529L10.2107 0ZM4.81872 10.5455H3.18235C2.88126 10.5455 2.6369 10.7898 2.6369 11.0909V12.1818C2.6369 12.4822 2.88126 12.7273 3.18235 12.7273H4.81872V13.8182H3.18235C2.28055 13.8182 1.54599 13.0844 1.54599 12.1818V11.0909C1.54599 10.1883 2.28055 9.45454 3.18235 9.45454H4.81872V10.5455ZM8.6369 10.5455H6.72781C6.57726 10.5455 6.45508 10.6676 6.45508 10.8182C6.45508 10.9687 6.57726 11.0909 6.72781 11.0909H7.27326C8.02528 11.0909 8.6369 11.7025 8.6369 12.4545C8.6369 13.2058 8.02528 13.8182 7.27326 13.8182H5.36417V12.7273H7.27326C7.42381 12.7273 7.54599 12.6051 7.54599 12.4545C7.54599 12.304 7.42381 12.1818 7.27326 12.1818H6.72781C5.9758 12.1818 5.36417 11.5702 5.36417 10.8182C5.36417 10.0662 5.9758 9.45454 6.72781 9.45454H8.6369V10.5455ZM11.3642 13.7738L11.3758 13.8175H11.3533H10.2624H10.2536L9.18236 9.45382H10.2733L10.8107 11.5818L11.3329 9.45382H12.4551L11.3642 13.7738ZM9.18236 4.36364V0.727262L12.8187 4.36364H9.18236Z" fill="#2C51B0"/>
</svg>
