<svg width="40" height="52" viewBox="0 0 40 52" fill="none" xmlns="http://www.w3.org/2000/svg">
<path d="M39.3218 42.7817V2.35651C39.3218 1.05507 38.2667 0 36.9653 0H3.0362C1.73476 0 0.679688 1.05507 0.679688 2.35651V42.7817H39.3218Z" fill="#EDF5FA"/>
<path d="M36.169 2.35651V42.7817H39.3222V2.35651C39.3222 1.05507 38.2672 0 36.9657 0H33.8125C35.1139 0 36.169 1.05507 36.169 2.35651Z" fill="#D0E7F2"/>
<path d="M0.679688 41.1836V49.6444C0.679688 50.9459 1.73476 52.001 3.0362 52.001H36.9653C38.2667 52.001 39.3218 50.9459 39.3218 49.6444V41.1836H0.679688Z" fill="#46CC8D"/>
<path d="M36.169 41.1836V49.6444C36.169 50.9459 35.1139 52.001 33.8125 52.001H36.9657C38.2672 52.001 39.3222 50.9459 39.3222 49.6444V41.1836H36.169Z" fill="#08B865"/>
<path d="M28.6521 35.33H11.3506C10.0739 35.33 9.03906 34.2951 9.03906 33.0185V19.4339L19.286 18.3828L30.9635 19.4339V33.0185C30.9636 34.2951 29.9287 35.33 28.6521 35.33Z" fill="#FEE97D"/>
<path d="M19.2862 18.3828L17.8125 18.534L27.8105 19.4339V33.0185C27.8105 34.2951 26.7756 35.33 25.499 35.33H28.6522C29.9289 35.33 30.9638 34.2951 30.9638 33.0185V19.4339L19.2862 18.3828Z" fill="#FEDF30"/>
<path d="M9.03831 10.9008H23.3609C23.7963 10.9008 24.1492 10.5479 24.1492 10.1125C24.1492 9.67717 23.7963 9.32422 23.3609 9.32422H9.03831C8.60295 9.32422 8.25 9.67717 8.25 10.1125C8.25 10.5479 8.60295 10.9008 9.03831 10.9008Z" fill="#D0E7F2"/>
<path d="M9.03831 7.11177H23.3609C23.7963 7.11177 24.1492 6.75882 24.1492 6.32346C24.1492 5.88811 23.7963 5.53516 23.3609 5.53516H9.03831C8.60295 5.53516 8.25 5.88811 8.25 6.32346C8.25 6.75882 8.60295 7.11177 9.03831 7.11177Z" fill="#D0E7F2"/>
<path d="M16.2973 46.2976L17.4641 44.4279C17.5177 44.3438 17.5437 44.2621 17.5437 44.1784C17.5437 43.8514 17.128 43.5977 16.7703 43.5977C16.5931 43.5977 16.4683 43.6672 16.3893 43.8097L15.4855 45.386L14.5823 43.8104C14.5028 43.6673 14.3781 43.5978 14.2009 43.5978C13.8432 43.5978 13.4275 43.8514 13.4275 44.1785C13.4275 44.2623 13.4536 44.3438 13.5069 44.4276L14.674 46.2977L13.4566 48.1768C13.4076 48.2583 13.3848 48.3304 13.3848 48.4036C13.3848 48.7529 13.8595 49.0058 14.1796 49.0058C14.3217 49.0058 14.4312 48.9566 14.4889 48.8656L15.4857 47.1726L16.4815 48.8641C16.5306 48.954 16.6436 49.0056 16.7917 49.0056C17.1118 49.0056 17.5865 48.7528 17.5865 48.4035C17.5865 48.3302 17.5637 48.2581 17.5139 48.1751L16.2973 46.2976Z" fill="#EDF5FA"/>
<path d="M21.2873 47.8871H19.7125V44.0286C19.7125 43.7423 19.3843 43.6406 19.1033 43.6406C18.8224 43.6406 18.4941 43.7423 18.4941 44.0286V48.5677C18.4941 48.8392 18.773 48.9628 19.0321 48.9628H21.2874C21.5441 48.9628 21.6611 48.684 21.6611 48.425C21.6611 48.166 21.5441 47.8871 21.2873 47.8871Z" fill="#EDF5FA"/>
<path d="M24.3964 45.58C23.9935 45.4023 23.6753 45.262 23.6753 45.0205C23.6753 44.8389 23.8489 44.6448 24.3364 44.6448C24.6756 44.6448 24.8579 44.7393 25.0044 44.8152C25.1087 44.8693 25.1989 44.916 25.314 44.916C25.6638 44.916 25.8091 44.5006 25.8091 44.2782C25.8091 43.6304 24.5823 43.5977 24.3363 43.5977C23.4693 43.5977 22.4567 43.9983 22.4567 45.1276C22.4567 46.1326 23.2531 46.5026 23.8931 46.7999C24.3363 47.0058 24.719 47.1836 24.719 47.5113C24.719 47.8202 24.3745 47.9298 24.0793 47.9298C23.7092 47.9298 23.4888 47.76 23.2943 47.6102C23.1488 47.4983 23.0232 47.4016 22.866 47.4016C22.5539 47.4016 22.3281 47.7911 22.3281 48.0537C22.3281 48.576 23.1565 49.034 24.1007 49.034C25.2336 49.034 25.9375 48.4067 25.9375 47.3971C25.9376 46.2595 25.0468 45.8667 24.3964 45.58Z" fill="#EDF5FA"/>
<path d="M30.9636 19.3726H9.03906V17.683C9.03906 16.4472 10.0409 15.4453 11.2768 15.4453H28.7259C29.9617 15.4453 30.9636 16.4472 30.9636 17.683V19.3726Z" fill="#46CC8D"/>
<path d="M28.7255 15.4453H25.5723C26.8081 15.4453 27.81 16.4472 27.81 17.683V19.3726H30.9632V17.683C30.9632 16.4472 29.9613 15.4453 28.7255 15.4453Z" fill="#08B865"/>
<path d="M25.9387 25.3657H13.6867C13.2514 25.3657 12.8984 25.0127 12.8984 24.5774C12.8984 24.142 13.2514 23.7891 13.6867 23.7891H25.9387C26.3742 23.7891 26.727 24.142 26.727 24.5774C26.727 25.0127 26.3742 25.3657 25.9387 25.3657Z" fill="#FED402"/>
<path d="M25.9387 29.8149H13.6867C13.2514 29.8149 12.8984 29.4619 12.8984 29.0266C12.8984 28.5912 13.2514 28.2383 13.6867 28.2383H25.9387C26.3742 28.2383 26.727 28.5912 26.727 29.0266C26.727 29.4619 26.3742 29.8149 25.9387 29.8149Z" fill="#FED402"/>
<path d="M16.927 31.99C16.4916 31.99 16.1387 31.6371 16.1387 31.2017V22.4055C16.1387 21.9701 16.4916 21.6172 16.927 21.6172C17.3623 21.6172 17.7153 21.9701 17.7153 22.4055V31.2017C17.7153 31.6372 17.3623 31.99 16.927 31.99Z" fill="#FED402"/>
<path d="M22.6985 31.99C22.263 31.99 21.9102 31.6371 21.9102 31.2017V22.4055C21.9102 21.9701 22.263 21.6172 22.6985 21.6172C23.1339 21.6172 23.4868 21.9701 23.4868 22.4055V31.2017C23.4868 31.6372 23.1338 31.99 22.6985 31.99Z" fill="#FED402"/>
</svg>
